<?xml version="1.0" encoding="UTF-8"?>
<svg xmlns="http://www.w3.org/2000/svg" style="stroke-dasharray:none; shape-rendering:auto; font-family:'Arial'; text-rendering:auto; fill-opacity:1; color-interpolation:auto; color-rendering:auto; font-size:12; fill:black; stroke:black; image-rendering:auto; stroke-miterlimit:10; stroke-linecap:square; stroke-linejoin:miter; font-style:normal; stroke-width:1; stroke-dashoffset:0; font-weight:normal; stroke-opacity:1;" contentScriptType="text/ecmascript" preserveAspectRatio="xMidYMid meet" zoomAndPan="magnify" version="1.0" contentStyleType="text/css" xml:xlink="http://www.w3.org/1999/xlink" width="1171" height="415"><rect x="20" y="270" width="1151" height="145" ry="0" rx="0" style="stroke:#000000; fill:#D0DAAE" /><g componentSequence="85"><text x="-342" y="29" transform="rotate(270)" text-anchor="middle" style="font-weight:bold;font-size:10px;stroke:none; fill:#434343"><tspan dy="14" x="-342">SwimLane</tspan></text></g><rect x="20" y="126" width="1151" height="145" ry="0" rx="0" style="stroke:#000000; fill:#ADC9AC" /><g componentSequence="83"><text x="-198" y="29" transform="rotate(270)" text-anchor="middle" style="font-weight:bold;font-size:10px;stroke:none; fill:#434343"><tspan dy="14" x="-198">SwimLane</tspan></text></g><rect x="20" y="10" width="1151" height="121" ry="0" rx="0" style="stroke:#000000; fill:#82B0B7" /><g componentSequence="81"><text x="-70" y="29" transform="rotate(270)" text-anchor="middle" style="font-weight:bold;font-size:10px;stroke:none; fill:#434343"><tspan dy="14" x="-70">SwimLane</tspan></text></g><g sequence="1"><ellipse cx="83" cy="81" rx="17" ry="17" stroke-width="1" style="fill:url(#linearGradient66FF6696FF96B6FFB6_230076415);" stroke="336633" /></g><g sequence="2"><polygon points=" 580 171 610 141 640 171 610 201 580 171" style="fill:url(#linearGradientFAFBFCFFFFCC_57757753);" stroke="000000" /></g><g componentSequence="2"><text x="610" y="209" text-anchor="middle" style="font-weight:bold;font-size:10px;stroke:none; fill:#333399"><tspan dy="14" x="610">Rota</tspan></text></g><g sequence="4"><rect x="810" y="157" width="106" height="85" ry="5" rx="5" style="fill:url(#linearGradientF8FBFEEDF5FCDEEDFAD4E7F8E2E5E9_122602639);" stroke="191970" /></g><g componentSequence="4"><text x="863" y="172" text-anchor="middle" style="font-weight:bold;font-size:10px;stroke:none; fill:#333399"><tspan dy="14" x="863">Aprovação</tspan><tspan dy="14" x="863">nivel 1º</tspan></text></g><g sequence="6"><rect x="149" y="283" width="106" height="85" ry="5" rx="5" style="fill:url(#linearGradientF8FBFEEDF5FCDEEDFAD4E7F8E2E5E9_1112300034);" stroke="191970" /></g><g componentSequence="6"><text x="202" y="298" text-anchor="middle" style="font-weight:bold;font-size:10px;stroke:none; fill:#333399"><tspan dy="14" x="202">Aprovação</tspan><tspan dy="14" x="202">nivel 2°</tspan></text></g><g sequence="18"><ellipse cx="1060" cy="384" rx="17" ry="17" stroke-width="3" style="fill:url(#linearGradientFF6666FF9696FFB6B6_2050874595);" stroke="993333" /></g><g sequence="58"><rect x="618" y="274" width="106" height="104" ry="5" rx="5" style="fill:url(#linearGradientF8FBFEEDF5FCDEEDFAD4E7F8E2E5E9_1942272773);" stroke="191970" /></g><g componentSequence="58"><text x="671" y="289" text-anchor="middle" style="font-weight:bold;font-size:10px;stroke:none; fill:#333399"><tspan dy="14" x="671">Maior que</tspan><tspan dy="14" x="671">1MI - Nivel1</tspan></text></g><g sequence="66"><polygon points=" 1030 53 1060 23 1090 53 1060 83 1030 53" style="fill:url(#linearGradientFAFBFCFFFFCC_39805774);" stroke="000000" /></g><g componentSequence="66"><text x="1060" y="93" text-anchor="middle" style="font-weight:bold;font-size:10px;stroke:none; fill:#333399"><tspan dy="14" x="1060">Aprov</tspan><tspan dy="14" x="1060">ação</tspan><tspan dy="14" x="1060">...</tspan></text></g><g sequence="72"><polygon points=" 300 190 330 160 360 190 330 220 300 190" style="fill:url(#linearGradientFAFBFCFFFFCC_576955725);" stroke="000000" /></g><g componentSequence="72"><text x="330" y="230" text-anchor="middle" style="font-weight:bold;font-size:10px;stroke:none; fill:#333399"><tspan dy="14" x="330">Rejeiç</tspan><tspan dy="14" x="330">ao &gt;</tspan><tspan dy="14" x="330">1MI</tspan></text></g><g sequence="77"><polygon points=" 60 190 90 160 120 190 90 220 60 190" style="fill:url(#linearGradientFAFBFCFFFFCC_908967718);" stroke="000000" /></g><g componentSequence="77"><text x="90" y="230" text-anchor="middle" style="font-weight:bold;font-size:10px;stroke:none; fill:#333399"><tspan dy="14" x="90">Rejeiç</tspan><tspan dy="14" x="90">ão &gt;</tspan><tspan dy="14" x="90">1M...</tspan></text></g><g componentSequence="61"><text x="350" y="134" style="font-size:10px;font-weight:none;stroke:none; fill:#333399" text-anchor="left" /></g><g componentSequence="62"><text x="735" y="194" style="font-size:10px;font-weight:none;stroke:none; fill:#333399" text-anchor="left" /></g><g componentSequence="69"><text x="973" y="134" style="font-size:10px;font-weight:none;stroke:none; fill:#333399" text-anchor="left" /></g><g componentSequence="70"><text x="1070" y="263" style="font-size:10px;font-weight:none;stroke:none; fill:#333399" text-anchor="left" /></g><g componentSequence="73"><text x="475" y="344" style="font-size:10px;font-weight:none;stroke:none; fill:#333399" text-anchor="left" /></g><g componentSequence="74"><text x="287" y="268" style="font-size:10px;font-weight:none;stroke:none; fill:#333399" text-anchor="left" /></g><g componentSequence="75"><text x="575" y="86" style="font-size:10px;font-weight:none;stroke:none; fill:#333399" text-anchor="left" /></g><g componentSequence="76"><text x="210" y="151" style="font-size:10px;font-weight:none;stroke:none; fill:#333399" text-anchor="left" /></g><g componentSequence="78"><text x="146" y="268" style="font-size:10px;font-weight:none;stroke:none; fill:#333399" text-anchor="left" /></g><g componentSequence="79"><text x="95" y="129" style="font-size:10px;font-weight:none;stroke:none; fill:#333399" text-anchor="left" /></g><g componentSequence="80"><text x="529" y="384" style="font-size:10px;font-weight:none;stroke:none; fill:#333399" text-anchor="left" /></g><g componentSequence="84"><text x="827" y="253" style="font-size:10px;font-weight:none;stroke:none; fill:#333399" text-anchor="left" /></g><path style="fill:none; stroke:#000000;stroke-width:1" d="M100.0 84.0 L579.0 183.0" /><polygon style="fill:#000000; stroke:#000000;" points=" 570 176 579 183 568 186 571 181" /><path style="fill:none; stroke:#000000;stroke-width:1" d="M1029.0 90.0 L100.0 81.0" /><polygon style="fill:#000000; stroke:#000000;" points=" 110 86 100 81 110 76 108 81" /><path style="fill:none; stroke:#000000;stroke-width:1" d="M299.0 209.0 L98.0 90.0" /><polygon style="fill:#000000; stroke:#000000;" points=" 104 99 98 90 109 91 105 94" /><path style="fill:none; stroke:#000000;stroke-width:1" d="M86.0 159.0 L83.0 98.0" /><polygon style="fill:#000000; stroke:#000000;" points=" 78 108 83 98 88 108 83 106" /><path style="fill:none; stroke:#000000;stroke-width:1" d="M640.0 191.0 L809.0 197.0" /><polygon style="fill:#000000; stroke:#000000;" points=" 799 192 809 197 799 202 801 197" /><path style="fill:none; stroke:#000000;stroke-width:1" d="M640.0 199.0 L828.0 256.0 L828.0 325.0 L724.0 325.0" /><polygon style="fill:#000000; stroke:#000000;" points=" 734 330 724 325 734 320 732 325" /><path style="fill:none; stroke:#000000;stroke-width:1" d="M908.0 156.0 L903.0 161.0 L1029.0 104.0" /><polygon style="fill:#000000; stroke:#000000;" points=" 1018 104 1029 104 1022 113 1022 107" /><path style="fill:none; stroke:#000000;stroke-width:1" d="M152.0 282.0 L120.0 254.0" /><polygon style="fill:#000000; stroke:#000000;" points=" 124 264 120 254 131 257 126 259" /><path style="fill:none; stroke:#000000;stroke-width:1" d="M299.0 251.0 L255.0 285.0" /><polygon style="fill:#000000; stroke:#000000;" points=" 266 283 255 285 260 275 261 280" /><path style="fill:none; stroke:#000000;stroke-width:1" d="M1060.0 159.0 L1060.0 366.0" /><polygon style="fill:#000000; stroke:#000000;" points=" 1065 356 1060 366 1055 356 1060 358" /><path style="fill:none; stroke:#000000;stroke-width:1" d="M87.0 296.0 L84.0 384.0 L1042.0 384.0" /><polygon style="fill:#000000; stroke:#000000;" points=" 1032 379 1042 384 1032 389 1034 384" /><path style="fill:none; stroke:#000000;stroke-width:1" d="M617.0 330.0 L372.0 353.0 L353.0 296.0" /><polygon style="fill:#000000; stroke:#000000;" points=" 351 307 353 296 361 304 356 304" /><defs><linearGradient xmlns:xlink="http://www.w3.org/1999/xlink" xlink:href="#linearGradient66FF6696FF96B6FFB6" id="linearGradient66FF6696FF96B6FFB6_230076415" x1="0" y1="64.0" x2="0" y2="99.0" gradientUnits="userSpaceOnUse" xlink:type="simple" xlink:actuate="onLoad" xlink:show="other" /><linearGradient id="linearGradient66FF6696FF96B6FFB6"><stop style="stop-color:#66FF66;stop-opacity:1;" offset="0.0" id="stop66FF66" /><stop style="stop-color:#96FF96;stop-opacity:1;" offset="0.5" id="stop96FF96" /><stop style="stop-color:#B6FFB6;stop-opacity:1;" offset="1.0" id="stopB6FFB6" /></linearGradient><linearGradient xmlns:xlink="http://www.w3.org/1999/xlink" xlink:href="#linearGradientFAFBFCFFFFCC" id="linearGradientFAFBFCFFFFCC_57757753" x1="0" y1="141.0" x2="0" y2="201.0" gradientUnits="userSpaceOnUse" xlink:type="simple" xlink:actuate="onLoad" xlink:show="other" /><linearGradient id="linearGradientFAFBFCFFFFCC"><stop style="stop-color:#FAFBFC;stop-opacity:1;" offset="0.0" id="stopFAFBFC" /><stop style="stop-color:#FFFFCC;stop-opacity:1;" offset="1.0" id="stopFFFFCC" /></linearGradient><linearGradient xmlns:xlink="http://www.w3.org/1999/xlink" xlink:href="#linearGradientF8FBFEEDF5FCDEEDFAD4E7F8E2E5E9" id="linearGradientF8FBFEEDF5FCDEEDFAD4E7F8E2E5E9_122602639" x1="0" y1="157.0" x2="0" y2="263.0" gradientUnits="userSpaceOnUse" xlink:type="simple" xlink:actuate="onLoad" xlink:show="other" /><linearGradient id="linearGradientF8FBFEEDF5FCDEEDFAD4E7F8E2E5E9"><stop style="stop-color:#F8FBFE;stop-opacity:1;" offset="0.0" id="stopF8FBFE" /><stop style="stop-color:#EDF5FC;stop-opacity:1;" offset="0.25" id="stopEDF5FC" /><stop style="stop-color:#DEEDFA;stop-opacity:1;" offset="0.5" id="stopDEEDFA" /><stop style="stop-color:#D4E7F8;stop-opacity:1;" offset="0.75" id="stopD4E7F8" /><stop style="stop-color:#E2E5E9;stop-opacity:1;" offset="1.0" id="stopE2E5E9" /></linearGradient><linearGradient xmlns:xlink="http://www.w3.org/1999/xlink" xlink:href="#linearGradientF8FBFEEDF5FCDEEDFAD4E7F8E2E5E9" id="linearGradientF8FBFEEDF5FCDEEDFAD4E7F8E2E5E9_1112300034" x1="0" y1="283.0" x2="0" y2="389.0" gradientUnits="userSpaceOnUse" xlink:type="simple" xlink:actuate="onLoad" xlink:show="other" /><linearGradient xmlns:xlink="http://www.w3.org/1999/xlink" xlink:href="#linearGradientFF6666FF9696FFB6B6" id="linearGradientFF6666FF9696FFB6B6_2050874595" x1="0" y1="367.0" x2="0" y2="402.0" gradientUnits="userSpaceOnUse" xlink:type="simple" xlink:actuate="onLoad" xlink:show="other" /><linearGradient id="linearGradientFF6666FF9696FFB6B6"><stop style="stop-color:#FF6666;stop-opacity:1;" offset="0.0" id="stopFF6666" /><stop style="stop-color:#FF9696;stop-opacity:1;" offset="0.5" id="stopFF9696" /><stop style="stop-color:#FFB6B6;stop-opacity:1;" offset="1.0" id="stopFFB6B6" /></linearGradient><linearGradient xmlns:xlink="http://www.w3.org/1999/xlink" xlink:href="#linearGradientF8FBFEEDF5FCDEEDFAD4E7F8E2E5E9" id="linearGradientF8FBFEEDF5FCDEEDFAD4E7F8E2E5E9_1942272773" x1="0" y1="274.0" x2="0" y2="380.0" gradientUnits="userSpaceOnUse" xlink:type="simple" xlink:actuate="onLoad" xlink:show="other" /><linearGradient xmlns:xlink="http://www.w3.org/1999/xlink" xlink:href="#linearGradientFAFBFCFFFFCC" id="linearGradientFAFBFCFFFFCC_39805774" x1="0" y1="23.0" x2="0" y2="83.0" gradientUnits="userSpaceOnUse" xlink:type="simple" xlink:actuate="onLoad" xlink:show="other" /><linearGradient xmlns:xlink="http://www.w3.org/1999/xlink" xlink:href="#linearGradientFAFBFCFFFFCC" id="linearGradientFAFBFCFFFFCC_576955725" x1="0" y1="160.0" x2="0" y2="220.0" gradientUnits="userSpaceOnUse" xlink:type="simple" xlink:actuate="onLoad" xlink:show="other" /><linearGradient xmlns:xlink="http://www.w3.org/1999/xlink" xlink:href="#linearGradientFAFBFCFFFFCC" id="linearGradientFAFBFCFFFFCC_908967718" x1="0" y1="160.0" x2="0" y2="220.0" gradientUnits="userSpaceOnUse" xlink:type="simple" xlink:actuate="onLoad" xlink:show="other" /></defs></svg>
