<?xml version="1.0" encoding="UTF-8"?>
<svg xmlns="http://www.w3.org/2000/svg" style="stroke-dasharray:none; shape-rendering:auto; font-family:'Arial'; text-rendering:auto; fill-opacity:1; color-interpolation:auto; color-rendering:auto; font-size:12; fill:black; stroke:black; image-rendering:auto; stroke-miterlimit:10; stroke-linecap:square; stroke-linejoin:miter; font-style:normal; stroke-width:1; stroke-dashoffset:0; font-weight:normal; stroke-opacity:1;" contentScriptType="text/ecmascript" preserveAspectRatio="xMidYMid meet" zoomAndPan="magnify" version="1.0" contentStyleType="text/css" xml:xlink="http://www.w3.org/1999/xlink" width="841" height="582"><rect x="10" y="10" width="831" height="572" ry="0" rx="0" style="stroke:#000000; fill:#FFFFFF" /><rect x="40" y="390" width="801" height="192" ry="0" rx="0" style="stroke:#000000; fill:#82B0B7" /><g componentSequence="29"><text x="-486" y="49" transform="rotate(270)" text-anchor="middle" style="font-weight:bold;font-size:10px;stroke:none; fill:#434343"><tspan dy="14" x="-486">SwimLane</tspan></text></g><rect x="40" y="200" width="801" height="190" ry="0" rx="0" style="stroke:#000000; fill:#00FF00" /><g componentSequence="3"><text x="-295" y="49" transform="rotate(270)" text-anchor="middle" style="font-weight:bold;font-size:10px;stroke:none; fill:#434343"><tspan dy="14" x="-295">Assignee</tspan></text></g><rect x="40" y="10" width="801" height="190" ry="0" rx="0" style="stroke:#000000; fill:#8080FF" /><g componentSequence="2"><text x="-105" y="49" transform="rotate(270)" text-anchor="middle" style="font-weight:bold;font-size:10px;stroke:none; fill:#434343"><tspan dy="14" x="-105">Reporter</tspan></text></g><g componentSequence="1"><text x="-296" y="19" transform="rotate(270)" text-anchor="middle" style="font-weight:bold;font-size:10px;stroke:none; fill:#434343"><tspan dy="14" x="-296">Pool</tspan></text></g><g sequence="4"><ellipse cx="127" cy="88" rx="17" ry="17" stroke-width="1" style="fill:url(#linearGradient66FF6696FF96B6FFB6_1820747787);" stroke="336633" /></g><g sequence="7"><rect x="310" y="220" width="106" height="66" ry="5" rx="5" style="fill:url(#linearGradientF8FBFEEDF5FCDEEDFAD4E7F8E2E5E9_1648466923);" stroke="191970" /></g><g componentSequence="7"><text x="363" y="242" text-anchor="middle" style="font-weight:bold;font-size:10px;stroke:none; fill:#333399"><tspan dy="14" x="363">Nivel 1</tspan></text></g><g sequence="9"><rect x="130" y="470" width="106" height="66" ry="5" rx="5" style="fill:url(#linearGradientF8FBFEEDF5FCDEEDFAD4E7F8E2E5E9_1719534459);" stroke="191970" /></g><g componentSequence="9"><text x="183" y="492" text-anchor="middle" style="font-weight:bold;font-size:10px;stroke:none; fill:#333399"><tspan dy="14" x="183">Nivel 2</tspan></text></g><g sequence="11"><polygon points=" 430 80 460 50 490 80 460 110 430 80" style="fill:url(#linearGradientFAFBFCFFFFCC_595366352);" stroke="000000" /></g><g componentSequence="11"><text x="460" y="118" text-anchor="middle" style="font-weight:bold;font-size:10px;stroke:none; fill:#333399"><tspan dy="14" x="460">Rota</tspan></text></g><g sequence="14"><rect x="700" y="60" width="106" height="85" ry="5" rx="5" style="fill:url(#linearGradientF8FBFEEDF5FCDEEDFAD4E7F8E2E5E9_2095412100);" stroke="191970" /></g><g componentSequence="14"><text x="753" y="75" text-anchor="middle" style="font-weight:bold;font-size:10px;stroke:none; fill:#333399"><tspan dy="14" x="753">Nivel 1</tspan><tspan dy="14" x="753">Simples</tspan></text></g><g sequence="16"><ellipse cx="767" cy="504" rx="17" ry="17" stroke-width="3" style="fill:url(#linearGradientFF6666FF9696FFB6B6_311767344);" stroke="993333" /></g><g sequence="21"><polygon points=" 730 270 760 240 790 270 760 300 730 270" style="fill:url(#linearGradientFAFBFCFFFFCC_82218434);" stroke="000000" /></g><g componentSequence="21"><text x="760" y="310" text-anchor="middle" style="font-weight:bold;font-size:10px;stroke:none; fill:#333399"><tspan dy="14" x="760">Exclu</tspan><tspan dy="14" x="760">siv</tspan><tspan dy="14" x="760">o</tspan></text></g><g sequence="25"><polygon points=" 420 340 450 310 480 340 450 370 420 340" style="fill:url(#linearGradientFAFBFCFFFFCC_1129541279);" stroke="000000" /></g><g componentSequence="25"><text x="450" y="380" text-anchor="middle" style="font-weight:bold;font-size:10px;stroke:none; fill:#333399"><tspan dy="14" x="450">Exclu</tspan><tspan dy="14" x="450">siv</tspan><tspan dy="14" x="450">o</tspan></text></g><g sequence="37"><polygon points=" 470 460 500 430 530 460 500 490 470 460" style="fill:url(#linearGradientFAFBFCFFFFCC_352144418);" stroke="000000" /></g><g componentSequence="37"><text x="500" y="500" text-anchor="middle" style="font-weight:bold;font-size:10px;stroke:none; fill:#333399"><tspan dy="14" x="500">Exclu</tspan><tspan dy="14" x="500">siv</tspan><tspan dy="14" x="500">o</tspan></text></g><g componentSequence="15"><text x="605" y="100" style="font-size:10px;font-weight:none;stroke:none; fill:#333399" text-anchor="left" /></g><g componentSequence="19"><text x="297" y="94" style="font-size:10px;font-weight:none;stroke:none; fill:#333399" text-anchor="left" /></g><g componentSequence="22"><text x="766" y="192" style="font-size:10px;font-weight:none;stroke:none; fill:#333399" text-anchor="left" /></g><g componentSequence="24"><text x="774" y="431" style="font-size:10px;font-weight:none;stroke:none; fill:#333399" text-anchor="left" /></g><g componentSequence="28"><text x="168" y="359" style="font-size:10px;font-weight:none;stroke:none; fill:#333399" text-anchor="left" /></g><g componentSequence="30"><text x="400" y="161" style="font-size:10px;font-weight:none;stroke:none; fill:#333399" text-anchor="left" /></g><g componentSequence="39"><text x="338" y="435" style="font-size:10px;font-weight:none;stroke:none; fill:#333399" text-anchor="left" /></g><g componentSequence="44"><text x="341" y="303" style="font-size:10px;font-weight:none;stroke:none; fill:#333399" text-anchor="left" /></g><g componentSequence="45"><text x="227" y="295" style="font-size:10px;font-weight:none;stroke:none; fill:#333399" text-anchor="left" /></g><g componentSequence="46"><text x="363" y="500" style="font-size:10px;font-weight:none;stroke:none; fill:#333399" text-anchor="left" /></g><g componentSequence="47"><text x="650" y="501" style="font-size:10px;font-weight:none;stroke:none; fill:#333399" text-anchor="left" /></g><g componentSequence="48"><text x="147" y="436" style="font-size:10px;font-weight:none;stroke:none; fill:#333399" text-anchor="left" /></g><path style="fill:none; stroke:#000000;stroke-width:1" d="M144.0 88.0 L429.0 98.0" /><polygon style="fill:#000000; stroke:#000000;" points=" 419 93 429 98 419 103 421 98" /><path style="fill:none; stroke:#000000;stroke-width:1" d="M729.0 307.0 L127.0 301.0 L127.0 106.0" /><polygon style="fill:#000000; stroke:#000000;" points=" 122 116 127 106 132 116 127 114" /><path style="fill:none; stroke:#000000;stroke-width:1" d="M419.0 368.0 L313.0 334.0 L217.0 334.0 L217.0 219.0 L217.0 126.0 L143.0 95.0" /><polygon style="fill:#000000; stroke:#000000;" points=" 150 103 143 95 154 94 150 98" /><path style="fill:none; stroke:#000000;stroke-width:1" d="M469.0 488.0 L300.0 436.0 L127.0 436.0 L127.0 106.0" /><polygon style="fill:#000000; stroke:#000000;" points=" 122 116 127 106 132 116 127 114" /><path style="fill:none; stroke:#000000;stroke-width:1" d="M309.0 251.0 L158.0 247.0 L158.0 360.0 L419.0 376.0" /><polygon style="fill:#000000; stroke:#000000;" points=" 409 370 419 376 409 380 411 376" /><path style="fill:none; stroke:#000000;stroke-width:1" d="M463.0 148.0 L464.0 160.0 L390.0 161.0 L362.0 161.0 L362.0 219.0" /><polygon style="fill:#000000; stroke:#000000;" points=" 367 209 362 219 357 209 362 211" /><path style="fill:none; stroke:#000000;stroke-width:1" d="M236.0 502.0 L469.0 498.0" /><polygon style="fill:#000000; stroke:#000000;" points=" 459 493 469 498 459 503 461 498" /><path style="fill:none; stroke:#000000;stroke-width:1" d="M419.0 392.0 L236.0 478.0" /><polygon style="fill:#000000; stroke:#000000;" points=" 247 478 236 478 243 469 243 475" /><path style="fill:none; stroke:#000000;stroke-width:1" d="M490.0 99.0 L699.0 101.0" /><polygon style="fill:#000000; stroke:#000000;" points=" 689 96 699 101 689 106 691 101" /><path style="fill:none; stroke:#000000;stroke-width:1" d="M754.0 145.0 L757.0 239.0" /><polygon style="fill:#000000; stroke:#000000;" points=" 762 229 757 239 752 229 757 231" /><path style="fill:none; stroke:#000000;stroke-width:1" d="M762.0 376.0 L767.0 487.0" /><polygon style="fill:#000000; stroke:#000000;" points=" 772 477 767 487 762 477 767 479" /><path style="fill:none; stroke:#000000;stroke-width:1" d="M530.0 498.0 L750.0 504.0" /><polygon style="fill:#000000; stroke:#000000;" points=" 740 499 750 504 740 509 742 504" /><defs><linearGradient xmlns:xlink="http://www.w3.org/1999/xlink" xlink:href="#linearGradient66FF6696FF96B6FFB6" id="linearGradient66FF6696FF96B6FFB6_1820747787" x1="0" y1="71.0" x2="0" y2="106.0" gradientUnits="userSpaceOnUse" xlink:type="simple" xlink:actuate="onLoad" xlink:show="other" /><linearGradient id="linearGradient66FF6696FF96B6FFB6"><stop style="stop-color:#66FF66;stop-opacity:1;" offset="0.0" id="stop66FF66" /><stop style="stop-color:#96FF96;stop-opacity:1;" offset="0.5" id="stop96FF96" /><stop style="stop-color:#B6FFB6;stop-opacity:1;" offset="1.0" id="stopB6FFB6" /></linearGradient><linearGradient xmlns:xlink="http://www.w3.org/1999/xlink" xlink:href="#linearGradientF8FBFEEDF5FCDEEDFAD4E7F8E2E5E9" id="linearGradientF8FBFEEDF5FCDEEDFAD4E7F8E2E5E9_1648466923" x1="0" y1="220.0" x2="0" y2="326.0" gradientUnits="userSpaceOnUse" xlink:type="simple" xlink:actuate="onLoad" xlink:show="other" /><linearGradient id="linearGradientF8FBFEEDF5FCDEEDFAD4E7F8E2E5E9"><stop style="stop-color:#F8FBFE;stop-opacity:1;" offset="0.0" id="stopF8FBFE" /><stop style="stop-color:#EDF5FC;stop-opacity:1;" offset="0.25" id="stopEDF5FC" /><stop style="stop-color:#DEEDFA;stop-opacity:1;" offset="0.5" id="stopDEEDFA" /><stop style="stop-color:#D4E7F8;stop-opacity:1;" offset="0.75" id="stopD4E7F8" /><stop style="stop-color:#E2E5E9;stop-opacity:1;" offset="1.0" id="stopE2E5E9" /></linearGradient><linearGradient xmlns:xlink="http://www.w3.org/1999/xlink" xlink:href="#linearGradientF8FBFEEDF5FCDEEDFAD4E7F8E2E5E9" id="linearGradientF8FBFEEDF5FCDEEDFAD4E7F8E2E5E9_1719534459" x1="0" y1="470.0" x2="0" y2="576.0" gradientUnits="userSpaceOnUse" xlink:type="simple" xlink:actuate="onLoad" xlink:show="other" /><linearGradient xmlns:xlink="http://www.w3.org/1999/xlink" xlink:href="#linearGradientFAFBFCFFFFCC" id="linearGradientFAFBFCFFFFCC_595366352" x1="0" y1="50.0" x2="0" y2="110.0" gradientUnits="userSpaceOnUse" xlink:type="simple" xlink:actuate="onLoad" xlink:show="other" /><linearGradient id="linearGradientFAFBFCFFFFCC"><stop style="stop-color:#FAFBFC;stop-opacity:1;" offset="0.0" id="stopFAFBFC" /><stop style="stop-color:#FFFFCC;stop-opacity:1;" offset="1.0" id="stopFFFFCC" /></linearGradient><linearGradient xmlns:xlink="http://www.w3.org/1999/xlink" xlink:href="#linearGradientF8FBFEEDF5FCDEEDFAD4E7F8E2E5E9" id="linearGradientF8FBFEEDF5FCDEEDFAD4E7F8E2E5E9_2095412100" x1="0" y1="60.0" x2="0" y2="166.0" gradientUnits="userSpaceOnUse" xlink:type="simple" xlink:actuate="onLoad" xlink:show="other" /><linearGradient xmlns:xlink="http://www.w3.org/1999/xlink" xlink:href="#linearGradientFF6666FF9696FFB6B6" id="linearGradientFF6666FF9696FFB6B6_311767344" x1="0" y1="487.0" x2="0" y2="522.0" gradientUnits="userSpaceOnUse" xlink:type="simple" xlink:actuate="onLoad" xlink:show="other" /><linearGradient id="linearGradientFF6666FF9696FFB6B6"><stop style="stop-color:#FF6666;stop-opacity:1;" offset="0.0" id="stopFF6666" /><stop style="stop-color:#FF9696;stop-opacity:1;" offset="0.5" id="stopFF9696" /><stop style="stop-color:#FFB6B6;stop-opacity:1;" offset="1.0" id="stopFFB6B6" /></linearGradient><linearGradient xmlns:xlink="http://www.w3.org/1999/xlink" xlink:href="#linearGradientFAFBFCFFFFCC" id="linearGradientFAFBFCFFFFCC_82218434" x1="0" y1="240.0" x2="0" y2="300.0" gradientUnits="userSpaceOnUse" xlink:type="simple" xlink:actuate="onLoad" xlink:show="other" /><linearGradient xmlns:xlink="http://www.w3.org/1999/xlink" xlink:href="#linearGradientFAFBFCFFFFCC" id="linearGradientFAFBFCFFFFCC_1129541279" x1="0" y1="310.0" x2="0" y2="370.0" gradientUnits="userSpaceOnUse" xlink:type="simple" xlink:actuate="onLoad" xlink:show="other" /><linearGradient xmlns:xlink="http://www.w3.org/1999/xlink" xlink:href="#linearGradientFAFBFCFFFFCC" id="linearGradientFAFBFCFFFFCC_352144418" x1="0" y1="430.0" x2="0" y2="490.0" gradientUnits="userSpaceOnUse" xlink:type="simple" xlink:actuate="onLoad" xlink:show="other" /></defs></svg>
