<?xml version="1.0" encoding="UTF-8"?>
<svg xmlns="http://www.w3.org/2000/svg" style="stroke-dasharray:none; shape-rendering:auto; font-family:'Arial'; text-rendering:auto; fill-opacity:1; color-interpolation:auto; color-rendering:auto; font-size:12; fill:black; stroke:black; image-rendering:auto; stroke-miterlimit:10; stroke-linecap:square; stroke-linejoin:miter; font-style:normal; stroke-width:1; stroke-dashoffset:0; font-weight:normal; stroke-opacity:1;" contentScriptType="text/ecmascript" preserveAspectRatio="xMidYMid meet" zoomAndPan="magnify" version="1.0" contentStyleType="text/css" xml:xlink="http://www.w3.org/1999/xlink" width="851" height="361"><rect x="0" y="220" width="851" height="141" ry="0" rx="0" style="stroke:#000000; fill:#D0DAAE" /><g componentSequence="36"><text x="-290" y="7" transform="rotate(270)" text-anchor="middle" style="font-weight:bold;font-size:10px;stroke:none; fill:#434343"><tspan dy="14" x="-290">Fim do processo</tspan></text></g><rect x="0" y="130" width="851" height="91" ry="0" rx="0" style="stroke:#000000; fill:#ADC9AC" /><g componentSequence="35"><text x="-175" y="7" transform="rotate(270)" text-anchor="middle" style="font-weight:bold;font-size:10px;stroke:none; fill:#434343"><tspan dy="14" x="-175">Responsáveis</tspan></text></g><rect x="0" y="0" width="851" height="131" ry="0" rx="0" style="stroke:#000000; fill:#82B0B7" /><g componentSequence="34"><text x="-65" y="7" transform="rotate(270)" text-anchor="middle" style="font-weight:bold;font-size:10px;stroke:none; fill:#434343"><tspan dy="14" x="-65">Inicio do processo</tspan></text></g><g sequence="1"><ellipse cx="57" cy="66" rx="17" ry="17" stroke-width="1" style="fill:url(#linearGradient66FF6696FF96B6FFB6_1326834632);" stroke="336633" /></g><g sequence="24"><polygon points=" 270 39 300 9 330 39 300 69 270 39" style="fill:url(#linearGradientFAFBFCFFFFCC_1104286810);" stroke="000000" /></g><g componentSequence="24"><text x="300" y="79" text-anchor="middle" style="font-weight:bold;font-size:10px;stroke:none; fill:#333399"><tspan dy="14" x="300">Definiçã</tspan><tspan dy="14" x="300">o de</tspan><tspan dy="14" x="300">Rota</tspan></text></g><g sequence="26"><rect x="60" y="149" width="106" height="56" ry="5" rx="5" style="fill:url(#linearGradientF8FBFEEDF5FCDEEDFAD4E7F8E2E5E9_1173194936);" stroke="191970" /></g><g componentSequence="26"><text x="113" y="166" text-anchor="middle" style="font-weight:bold;font-size:10px;stroke:none; fill:#333399"><tspan dy="14" x="113">Ana Pecinatti</tspan></text></g><g sequence="28"><rect x="190" y="142" width="106" height="70" ry="5" rx="5" style="fill:url(#linearGradientF8FBFEEDF5FCDEEDFAD4E7F8E2E5E9_15670881);" stroke="191970" /></g><g componentSequence="28"><text x="243" y="157" text-anchor="middle" style="font-weight:bold;font-size:10px;stroke:none; fill:#333399"><tspan dy="14" x="243">Rafaella</tspan><tspan dy="14" x="243">Rodrigues</tspan></text></g><g sequence="30"><rect x="510" y="149" width="106" height="56" ry="5" rx="5" style="fill:url(#linearGradientF8FBFEEDF5FCDEEDFAD4E7F8E2E5E9_1610917399);" stroke="191970" /></g><g componentSequence="30"><text x="563" y="166" text-anchor="middle" style="font-weight:bold;font-size:10px;stroke:none; fill:#333399"><tspan dy="14" x="563">TBD</tspan></text></g><g sequence="32"><rect x="320" y="149" width="106" height="56" ry="5" rx="5" style="fill:url(#linearGradientF8FBFEEDF5FCDEEDFAD4E7F8E2E5E9_824516233);" stroke="191970" /></g><g componentSequence="32"><text x="373" y="166" text-anchor="middle" style="font-weight:bold;font-size:10px;stroke:none; fill:#333399"><tspan dy="14" x="373">Rafaella / Ana</tspan></text></g><g sequence="42"><rect x="490" y="20" width="106" height="84" ry="5" rx="5" style="fill:url(#linearGradientF8FBFEEDF5FCDEEDFAD4E7F8E2E5E9_405076061);" stroke="191970" /></g><g componentSequence="42"><text x="543" y="35" text-anchor="middle" style="font-weight:bold;font-size:10px;stroke:none; fill:#333399"><tspan dy="14" x="543">Definição</tspan><tspan dy="14" x="543">manual de</tspan><tspan dy="14" x="543">responsável</tspan></text></g><g sequence="44"><ellipse cx="777" cy="291" rx="17" ry="17" stroke-width="3" style="fill:url(#linearGradientFF6666FF9696FFB6B6_1623253294);" stroke="993333" /></g><rect x="660" y="30" width="105" height="55" ry="5" rx="5" style="stroke:none; fill:#FFFFE0" /><g componentSequence="46"><text x="670" y="53" text-anchor="left" style="font-weight:bold;font-size:10px;stroke:none; fill:#000000"><tspan dy="14" x="670">Envio de email</tspan><tspan dy="14" x="670">por grupo</tspan></text></g><path style="fill:none; stroke-width:1; stroke:#000000;" d="M680.0 30.0 L660.0 30.0 L660.0 85.0 L680.0 85.0" /><g componentSequence="25"><text x="182" y="66" style="font-size:10px;font-weight:none;stroke:none; fill:#333399" text-anchor="left" /></g><g componentSequence="27"><text x="225" y="117" style="font-size:10px;font-weight:none;stroke:none; fill:#333399" text-anchor="left" /></g><g componentSequence="29"><text x="276" y="133" style="font-size:10px;font-weight:none;stroke:none; fill:#333399" text-anchor="left" /></g><g componentSequence="31"><text x="430" y="117" style="font-size:10px;font-weight:none;stroke:none; fill:#333399" text-anchor="left" /></g><g componentSequence="33"><text x="352" y="130" style="font-size:10px;font-weight:none;stroke:none; fill:#333399" text-anchor="left" /></g><g componentSequence="43"><text x="420" y="65" style="font-size:10px;font-weight:none;stroke:none; fill:#333399" text-anchor="left" /></g><g componentSequence="47"><text x="638" y="60" style="font-size:10px;font-weight:none;stroke:none; fill:#333399" text-anchor="left" /></g><g componentSequence="48"><text x="390" y="306" style="font-size:10px;font-weight:none;stroke:none; fill:#333399" text-anchor="left" /></g><g componentSequence="49"><text x="470" y="291" style="font-size:10px;font-weight:none;stroke:none; fill:#333399" text-anchor="left" /></g><g componentSequence="50"><text x="544" y="278" style="font-size:10px;font-weight:none;stroke:none; fill:#333399" text-anchor="left" /></g><g componentSequence="51"><text x="641" y="273" style="font-size:10px;font-weight:none;stroke:none; fill:#333399" text-anchor="left" /></g><g componentSequence="52"><text x="715" y="181" style="font-size:10px;font-weight:none;stroke:none; fill:#333399" text-anchor="left" /></g><path style="fill:none; stroke:#000000;stroke-width:1" d="M74.0 66.0 L269.0 66.0" /><polygon style="fill:#000000; stroke:#000000;" points=" 259 61 269 66 259 71 261 66" /><path style="fill:none; stroke:#000000;stroke-width:1" d="M269.0 85.0 L161.0 148.0" /><polygon style="fill:#000000; stroke:#000000;" points=" 172 147 161 148 167 139 168 144" /><path style="fill:none; stroke:#000000;stroke-width:1" d="M270.0 125.0 L261.0 141.0" /><polygon style="fill:#000000; stroke:#000000;" points=" 270 135 261 141 262 130 265 134" /><path style="fill:none; stroke:#000000;stroke-width:1" d="M330.0 79.0 L509.0 154.0" /><polygon style="fill:#000000; stroke:#000000;" points=" 502 146 509 154 498 155 502 151" /><path style="fill:none; stroke:#000000;stroke-width:1" d="M330.0 112.0 L354.0 148.0" /><polygon style="fill:#000000; stroke:#000000;" points=" 353 137 354 148 344 142 350 141" /><path style="fill:none; stroke:#000000;stroke-width:1" d="M330.0 66.0 L489.0 63.0" /><polygon style="fill:#000000; stroke:#000000;" points=" 479 58 489 63 479 68 481 63" /><path style="fill:none; stroke:#000000;stroke-dasharray:2" d="M659.0 59.0 L596.0 60.0" /><path style="fill:none; stroke:#000000;stroke-width:1" d="M112.0 205.0 L112.0 316.0 L760.0 291.0" /><polygon style="fill:#000000; stroke:#000000;" points=" 750 286 760 291 750 296 752 291" /><path style="fill:none; stroke:#000000;stroke-width:1" d="M242.0 212.0 L240.0 291.0 L759.0 291.0" /><polygon style="fill:#000000; stroke:#000000;" points=" 749 286 759 291 749 296 751 291" /><path style="fill:none; stroke:#000000;stroke-width:1" d="M372.0 205.0 L372.0 269.0 L760.0 291.0" /><polygon style="fill:#000000; stroke:#000000;" points=" 750 285 760 291 750 295 752 291" /><path style="fill:none; stroke:#000000;stroke-width:1" d="M562.0 205.0 L562.0 264.0 L760.0 289.0" /><polygon style="fill:#000000; stroke:#000000;" points=" 751 283 760 289 749 293 752 288" /><path style="fill:none; stroke:#000000;stroke-width:1" d="M596.0 89.0 L650.0 116.0 L673.0 181.0 L775.0 181.0 L777.0 274.0" /><polygon style="fill:#000000; stroke:#000000;" points=" 782 264 777 274 772 264 777 266" /><defs><linearGradient xmlns:xlink="http://www.w3.org/1999/xlink" xlink:href="#linearGradient66FF6696FF96B6FFB6" id="linearGradient66FF6696FF96B6FFB6_1326834632" x1="0" y1="49.0" x2="0" y2="84.0" gradientUnits="userSpaceOnUse" xlink:type="simple" xlink:actuate="onLoad" xlink:show="other" /><linearGradient id="linearGradient66FF6696FF96B6FFB6"><stop style="stop-color:#66FF66;stop-opacity:1;" offset="0.0" id="stop66FF66" /><stop style="stop-color:#96FF96;stop-opacity:1;" offset="0.5" id="stop96FF96" /><stop style="stop-color:#B6FFB6;stop-opacity:1;" offset="1.0" id="stopB6FFB6" /></linearGradient><linearGradient xmlns:xlink="http://www.w3.org/1999/xlink" xlink:href="#linearGradientFAFBFCFFFFCC" id="linearGradientFAFBFCFFFFCC_1104286810" x1="0" y1="9.0" x2="0" y2="69.0" gradientUnits="userSpaceOnUse" xlink:type="simple" xlink:actuate="onLoad" xlink:show="other" /><linearGradient id="linearGradientFAFBFCFFFFCC"><stop style="stop-color:#FAFBFC;stop-opacity:1;" offset="0.0" id="stopFAFBFC" /><stop style="stop-color:#FFFFCC;stop-opacity:1;" offset="1.0" id="stopFFFFCC" /></linearGradient><linearGradient xmlns:xlink="http://www.w3.org/1999/xlink" xlink:href="#linearGradientF8FBFEEDF5FCDEEDFAD4E7F8E2E5E9" id="linearGradientF8FBFEEDF5FCDEEDFAD4E7F8E2E5E9_1173194936" x1="0" y1="149.0" x2="0" y2="255.0" gradientUnits="userSpaceOnUse" xlink:type="simple" xlink:actuate="onLoad" xlink:show="other" /><linearGradient id="linearGradientF8FBFEEDF5FCDEEDFAD4E7F8E2E5E9"><stop style="stop-color:#F8FBFE;stop-opacity:1;" offset="0.0" id="stopF8FBFE" /><stop style="stop-color:#EDF5FC;stop-opacity:1;" offset="0.25" id="stopEDF5FC" /><stop style="stop-color:#DEEDFA;stop-opacity:1;" offset="0.5" id="stopDEEDFA" /><stop style="stop-color:#D4E7F8;stop-opacity:1;" offset="0.75" id="stopD4E7F8" /><stop style="stop-color:#E2E5E9;stop-opacity:1;" offset="1.0" id="stopE2E5E9" /></linearGradient><linearGradient xmlns:xlink="http://www.w3.org/1999/xlink" xlink:href="#linearGradientF8FBFEEDF5FCDEEDFAD4E7F8E2E5E9" id="linearGradientF8FBFEEDF5FCDEEDFAD4E7F8E2E5E9_15670881" x1="0" y1="142.0" x2="0" y2="248.0" gradientUnits="userSpaceOnUse" xlink:type="simple" xlink:actuate="onLoad" xlink:show="other" /><linearGradient xmlns:xlink="http://www.w3.org/1999/xlink" xlink:href="#linearGradientF8FBFEEDF5FCDEEDFAD4E7F8E2E5E9" id="linearGradientF8FBFEEDF5FCDEEDFAD4E7F8E2E5E9_1610917399" x1="0" y1="149.0" x2="0" y2="255.0" gradientUnits="userSpaceOnUse" xlink:type="simple" xlink:actuate="onLoad" xlink:show="other" /><linearGradient xmlns:xlink="http://www.w3.org/1999/xlink" xlink:href="#linearGradientF8FBFEEDF5FCDEEDFAD4E7F8E2E5E9" id="linearGradientF8FBFEEDF5FCDEEDFAD4E7F8E2E5E9_824516233" x1="0" y1="149.0" x2="0" y2="255.0" gradientUnits="userSpaceOnUse" xlink:type="simple" xlink:actuate="onLoad" xlink:show="other" /><linearGradient xmlns:xlink="http://www.w3.org/1999/xlink" xlink:href="#linearGradientF8FBFEEDF5FCDEEDFAD4E7F8E2E5E9" id="linearGradientF8FBFEEDF5FCDEEDFAD4E7F8E2E5E9_405076061" x1="0" y1="20.0" x2="0" y2="126.0" gradientUnits="userSpaceOnUse" xlink:type="simple" xlink:actuate="onLoad" xlink:show="other" /><linearGradient xmlns:xlink="http://www.w3.org/1999/xlink" xlink:href="#linearGradientFF6666FF9696FFB6B6" id="linearGradientFF6666FF9696FFB6B6_1623253294" x1="0" y1="274.0" x2="0" y2="309.0" gradientUnits="userSpaceOnUse" xlink:type="simple" xlink:actuate="onLoad" xlink:show="other" /><linearGradient id="linearGradientFF6666FF9696FFB6B6"><stop style="stop-color:#FF6666;stop-opacity:1;" offset="0.0" id="stopFF6666" /><stop style="stop-color:#FF9696;stop-opacity:1;" offset="0.5" id="stopFF9696" /><stop style="stop-color:#FFB6B6;stop-opacity:1;" offset="1.0" id="stopFFB6B6" /></linearGradient></defs></svg>
