<?xml version="1.0" encoding="UTF-8"?>
<svg xmlns="http://www.w3.org/2000/svg" style="stroke-dasharray:none; shape-rendering:auto; font-family:'Arial'; text-rendering:auto; fill-opacity:1; color-interpolation:auto; color-rendering:auto; font-size:12; fill:black; stroke:black; image-rendering:auto; stroke-miterlimit:10; stroke-linecap:square; stroke-linejoin:miter; font-style:normal; stroke-width:1; stroke-dashoffset:0; font-weight:normal; stroke-opacity:1;" contentScriptType="text/ecmascript" preserveAspectRatio="xMidYMid meet" zoomAndPan="magnify" version="1.0" contentStyleType="text/css" xml:xlink="http://www.w3.org/1999/xlink" width="1681" height="1238"><rect x="0" y="0" width="1681" height="1221" ry="0" rx="0" style="stroke:#000000; fill:#FFFFFF" /><rect x="30" y="488" width="1651" height="244" ry="0" rx="0" style="stroke:#000000; fill:#D0DAAE" /><g componentSequence="6"><text x="-610" y="39" transform="rotate(270)" text-anchor="middle" style="font-weight:bold;font-size:10px;stroke:none; fill:#434343"><tspan dy="14" x="-610">Analista</tspan></text></g><rect x="30" y="976" width="1651" height="245" ry="0" rx="0" style="stroke:#000000; fill:#C0C0C0" /><g componentSequence="5"><text x="-1098" y="39" transform="rotate(270)" text-anchor="middle" style="font-weight:bold;font-size:10px;stroke:none; fill:#434343"><tspan dy="14" x="-1098">Comitê Aprovação Mudança</tspan></text></g><rect x="30" y="732" width="1651" height="244" ry="0" rx="0" style="stroke:#000000; fill:#82B0B7" /><g componentSequence="4"><text x="-854" y="39" transform="rotate(270)" text-anchor="middle" style="font-weight:bold;font-size:10px;stroke:none; fill:#434343"><tspan dy="14" x="-854">Consultores (N2)</tspan></text></g><rect x="30" y="244" width="1651" height="244" ry="0" rx="0" style="stroke:#000000; fill:#ADC9AC" /><g componentSequence="3"><text x="-366" y="39" transform="rotate(270)" text-anchor="middle" style="font-weight:bold;font-size:10px;stroke:none; fill:#434343"><tspan dy="14" x="-366">Lider da Sustentação</tspan></text></g><rect x="30" y="0" width="1651" height="244" ry="0" rx="0" style="stroke:#000000; fill:#9F9F9F" /><g componentSequence="2"><text x="-122" y="39" transform="rotate(270)" text-anchor="middle" style="font-weight:bold;font-size:10px;stroke:none; fill:#434343"><tspan dy="14" x="-122">Solicitante</tspan></text></g><g componentSequence="1"><text x="-610" y="9" transform="rotate(270)" text-anchor="middle" style="font-weight:bold;font-size:10px;stroke:none; fill:#434343"><tspan dy="14" x="-610">Fluxo Macro Change Request</tspan></text></g><g sequence="4"><ellipse cx="227" cy="657" rx="17" ry="17" stroke-width="1" style="fill:url(#linearGradient66FF6696FF96B6FFB6_66042001);" stroke="336633" /></g><g sequence="25"><rect x="1337" y="376" width="106" height="85" ry="5" rx="5" style="fill:url(#linearGradientF8FBFEEDF5FCDEEDFAD4E7F8E2E5E9_220747420);" stroke="191970" /></g><g componentSequence="25"><text x="1390" y="391" text-anchor="middle" style="font-weight:bold;font-size:10px;stroke:none; fill:#333399"><tspan dy="14" x="1390">Aprovação</tspan><tspan dy="14" x="1390">de Go Live</tspan></text></g><g sequence="31"><rect x="1050" y="640" width="106" height="85" ry="5" rx="5" style="fill:url(#linearGradientF8FBFEEDF5FCDEEDFAD4E7F8E2E5E9_152556513);" stroke="191970" /></g><g componentSequence="31"><text x="1103" y="655" text-anchor="middle" style="font-weight:bold;font-size:10px;stroke:none; fill:#333399"><tspan dy="14" x="1103">Roteiro de</tspan><tspan dy="14" x="1103">Testes</tspan></text></g><g sequence="33"><rect x="620" y="980" width="106" height="104" ry="5" rx="5" style="fill:url(#linearGradientF8FBFEEDF5FCDEEDFAD4E7F8E2E5E9_1276468391);" stroke="191970" /></g><g componentSequence="33"><text x="673" y="995" text-anchor="middle" style="font-weight:bold;font-size:10px;stroke:none; fill:#333399"><tspan dy="14" x="673">Aprovação</tspan><tspan dy="14" x="673">Comite de</tspan><tspan dy="14" x="673">Mudança</tspan></text></g><g sequence="44"><rect x="1050" y="840" width="106" height="123" ry="5" rx="5" style="fill:url(#linearGradientF8FBFEEDF5FCDEEDFAD4E7F8E2E5E9_851463812);" stroke="191970" /></g><g componentSequence="44"><text x="1103" y="855" text-anchor="middle" style="font-weight:bold;font-size:10px;stroke:none; fill:#333399"><tspan dy="14" x="1103">Efetua os</tspan><tspan dy="14" x="1103">testes e</tspan><tspan dy="14" x="1103">colhe</tspan><tspan dy="14" x="1103">evidências</tspan></text></g><g sequence="55"><rect x="174" y="30" width="106" height="104" ry="5" rx="5" style="fill:url(#linearGradientF8FBFEEDF5FCDEEDFAD4E7F8E2E5E9_2098426614);" stroke="191970" /></g><g componentSequence="55"><text x="227" y="45" text-anchor="middle" style="font-weight:bold;font-size:10px;stroke:none; fill:#333399"><tspan dy="14" x="227">Aprovação</tspan><tspan dy="14" x="227">da</tspan><tspan dy="14" x="227">Proposta</tspan></text></g><g sequence="57"><polygon points=" 350 40 380 10 410 40 380 70 350 40" style="fill:url(#linearGradientFAFBFCFFFFCC_1244413550);" stroke="000000" /></g><g componentSequence="57"><text x="380" y="80" text-anchor="middle" style="font-weight:bold;font-size:10px;stroke:none; fill:#333399"><tspan dy="14" x="380">Form</tspan><tspan dy="14" x="380">ulário</tspan><tspan dy="14" x="380">ap...</tspan></text></g><g sequence="65"><rect x="330" y="500" width="106" height="104" ry="5" rx="5" style="fill:url(#linearGradientF8FBFEEDF5FCDEEDFAD4E7F8E2E5E9_742040552);" stroke="191970" /></g><g componentSequence="65"><text x="383" y="515" text-anchor="middle" style="font-weight:bold;font-size:10px;stroke:none; fill:#333399"><tspan dy="14" x="383">Analise</tspan><tspan dy="14" x="383">Tecnica</tspan><tspan dy="14" x="383">Impacto</tspan></text></g><g sequence="67"><rect x="517" y="160" width="106" height="104" ry="5" rx="5" style="fill:url(#linearGradientF8FBFEEDF5FCDEEDFAD4E7F8E2E5E9_473853061);" stroke="191970" /></g><g componentSequence="67"><text x="570" y="175" text-anchor="middle" style="font-weight:bold;font-size:10px;stroke:none; fill:#333399"><tspan dy="14" x="570">Aprovação</tspan><tspan dy="14" x="570">da Análise</tspan><tspan dy="14" x="570">técnica</tspan></text></g><g sequence="69"><polygon points=" 777 167 807 137 837 167 807 197 777 167" style="fill:url(#linearGradientFAFBFCFFFFCC_2061248822);" stroke="000000" /></g><g componentSequence="69"><text x="807" y="207" text-anchor="middle" style="font-weight:bold;font-size:10px;stroke:none; fill:#333399"><tspan dy="14" x="807">Form</tspan><tspan dy="14" x="807">ulário</tspan><tspan dy="14" x="807">ap...</tspan></text></g><g sequence="75"><rect x="754" y="368" width="106" height="104" ry="5" rx="5" style="fill:url(#linearGradientF8FBFEEDF5FCDEEDFAD4E7F8E2E5E9_1361622861);" stroke="191970" /></g><g componentSequence="75"><text x="807" y="383" text-anchor="middle" style="font-weight:bold;font-size:10px;stroke:none; fill:#333399"><tspan dy="14" x="807">Aprovação</tspan><tspan dy="14" x="807">Sustentaçã</tspan><tspan dy="14" x="807">o</tspan></text></g><g sequence="78"><polygon points=" 590 1170 620 1140 650 1170 620 1200 590 1170" style="fill:url(#linearGradientFAFBFCFFFFCC_678722403);" stroke="000000" /></g><g componentSequence="78"><text x="620" y="1208" text-anchor="middle" style="font-weight:bold;font-size:10px;stroke:none; fill:#333399"><tspan dy="14" x="620">Aprov</tspan></text></g><g sequence="89"><polygon points=" 1150 397 1180 367 1210 397 1180 427 1150 397" style="fill:url(#linearGradientFAFBFCFFFFCC_1203855532);" stroke="000000" /></g><g componentSequence="89"><text x="1180" y="435" text-anchor="middle" style="font-weight:bold;font-size:10px;stroke:none; fill:#333399"><tspan dy="14" x="1180">Aprov</tspan></text></g><g sequence="91"><rect x="1357" y="160" width="106" height="85" ry="5" rx="5" style="fill:url(#linearGradientF8FBFEEDF5FCDEEDFAD4E7F8E2E5E9_1557099771);" stroke="191970" /></g><g componentSequence="91"><text x="1410" y="175" text-anchor="middle" style="font-weight:bold;font-size:10px;stroke:none; fill:#333399"><tspan dy="14" x="1410">Validaçao</tspan><tspan dy="14" x="1410">de Deploy</tspan></text></g><g sequence="94"><polygon points=" 1380 40 1410 10 1440 40 1410 70 1380 40" style="fill:url(#linearGradientFAFBFCFFFFCC_1212756720);" stroke="000000" /></g><g componentSequence="94"><text x="1410" y="80" text-anchor="middle" style="font-weight:bold;font-size:10px;stroke:none; fill:#333399"><tspan dy="14" x="1410">Deplo</tspan><tspan dy="14" x="1410">y ok?</tspan></text></g><g sequence="96"><rect x="1477" y="515" width="106" height="123" ry="5" rx="5" style="fill:url(#linearGradientF8FBFEEDF5FCDEEDFAD4E7F8E2E5E9_1131280377);" stroke="191970" /></g><g componentSequence="96"><text x="1530" y="530" text-anchor="middle" style="font-weight:bold;font-size:10px;stroke:none; fill:#333399"><tspan dy="14" x="1530">Finaliza</tspan><tspan dy="14" x="1530">documenta</tspan><tspan dy="14" x="1530">ção e ticket</tspan></text></g><g sequence="98"><ellipse cx="1627" cy="557" rx="17" ry="17" stroke-width="3" style="fill:url(#linearGradientFF6666FF9696FFB6B6_258288440);" stroke="993333" /></g><g sequence="100"><rect x="1050" y="69" width="106" height="66" ry="5" rx="5" style="fill:url(#linearGradientF8FBFEEDF5FCDEEDFAD4E7F8E2E5E9_673902211);" stroke="191970" /></g><g componentSequence="100"><text x="1103" y="91" text-anchor="middle" style="font-weight:bold;font-size:10px;stroke:none; fill:#333399"><tspan dy="14" x="1103">Rollback</tspan></text></g><g sequence="109"><rect x="517" y="600" width="106" height="66" ry="5" rx="5" style="fill:url(#linearGradientF8FBFEEDF5FCDEEDFAD4E7F8E2E5E9_703956932);" stroke="191970" /></g><g componentSequence="109"><text x="570" y="622" text-anchor="middle" style="font-weight:bold;font-size:10px;stroke:none; fill:#333399"><tspan dy="14" x="570">Qualidade</tspan></text></g><g sequence="126"><polygon points=" 540 521 570 491 600 521 570 551 540 521" style="fill:url(#linearGradientFAFBFCFFFFCC_93024060);" stroke="000000" /></g><path style="fill:none; stroke-width:6; stroke:#000000;" d="M560.0 521.0 L580.0 521.0" /><path style="fill:none; stroke-width:6; stroke:#000000;" d="M570.0 511.0 L570.0 531.0" /><g componentSequence="126"><text x="570" y="561" text-anchor="middle" style="font-weight:bold;font-size:10px;stroke:none; fill:#333399"><tspan dy="14" x="570">Paral</tspan><tspan dy="14" x="570">elo</tspan></text></g><g sequence="132"><ellipse cx="569" cy="697" rx="17" ry="17" stroke-width="1" style="fill:url(#linearGradientFFFF66FFFF96FFFFB6_596748382);" stroke="999900" /></g><g sequence="132"><polygon points=" 555 690 570 690 570 683 585 698 570 713 570 706 555 706" style="stroke:none; fill:#999900" /></g><g sequence="133"><polygon points=" 1500 47 1530 17 1560 47 1530 77 1500 47" style="fill:url(#linearGradientFAFBFCFFFFCC_1555043417);" stroke="000000" /></g><path style="fill:none; stroke-width:6; stroke:#000000;" d="M1520.0 47.0 L1540.0 47.0" /><path style="fill:none; stroke-width:6; stroke:#000000;" d="M1530.0 37.0 L1530.0 57.0" /><g componentSequence="133"><text x="1530" y="85" text-anchor="middle" style="font-weight:bold;font-size:10px;stroke:none; fill:#333399"><tspan dy="14" x="1530">Join</tspan></text></g><g sequence="136"><ellipse cx="1627" cy="60" rx="17" ry="17" stroke-width="1" style="fill:url(#linearGradientFFFF66FFFF96FFFFB6_1509843884);" stroke="999900" /></g><g sequence="136"><polygon points=" 1613 53 1628 53 1628 46 1643 61 1628 76 1628 69 1613 69" style="stroke:#999900; fill:none" /></g><g sequence="143"><ellipse cx="807" cy="64" rx="17" ry="17" stroke-width="1" style="fill:url(#linearGradientFFFF66FFFF96FFFFB6_131208480);" stroke="999900" /></g><g sequence="143"><polygon points=" 793 57 808 57 808 50 823 65 808 80 808 73 793 73" style="stroke:none; fill:#999900" /></g><rect x="80" y="620" width="105" height="89" ry="5" rx="5" style="stroke:none; fill:#FFFFE0" /><g componentSequence="7"><text x="90" y="643" text-anchor="left" style="font-weight:bold;font-size:10px;stroke:none; fill:#000000"><tspan dy="14" x="90">Avalia o</tspan><tspan dy="14" x="90">impacto da</tspan><tspan dy="14" x="90">mudança</tspan></text></g><path style="fill:none; stroke-width:1; stroke:#000000;" d="M100.0 620.0 L80.0 620.0 L80.0 709.0 L100.0 709.0" /><g componentSequence="58"><text x="325" y="79" style="font-size:10px;font-weight:none;stroke:none; fill:#333399" text-anchor="left" /></g><g componentSequence="70"><text x="710" y="208" style="font-size:10px;font-weight:none;stroke:none; fill:#333399" text-anchor="left" /></g><g componentSequence="76"><text x="817" y="320" style="font-size:10px;font-weight:none;stroke:none; fill:#333399" text-anchor="left"><tspan dy="14" x="817">Sim</tspan></text></g><g componentSequence="77"><text x="750" y="726" style="font-size:10px;font-weight:none;stroke:none; fill:#333399" text-anchor="left" /></g><g componentSequence="79"><text x="656" y="1122" style="font-size:10px;font-weight:none;stroke:none; fill:#333399" text-anchor="left"><tspan dy="14" x="656">Formulário</tspan><tspan dy="14" x="656">aprovado</tspan></text></g><g componentSequence="83"><text x="1113" y="782" style="font-size:10px;font-weight:none;stroke:none; fill:#333399" text-anchor="left" /></g><g componentSequence="90"><text x="1283" y="417" style="font-size:10px;font-weight:none;stroke:none; fill:#333399" text-anchor="left" /></g><g componentSequence="92"><text x="1297" y="316" style="font-size:10px;font-weight:none;stroke:none; fill:#333399" text-anchor="left"><tspan dy="14" x="1297">Sim</tspan></text></g><g componentSequence="93"><text x="1150" y="552" style="font-size:10px;font-weight:none;stroke:none; fill:#333399" text-anchor="left"><tspan dy="14" x="1150">Não</tspan></text></g><g componentSequence="95"><text x="1420" y="143" style="font-size:10px;font-weight:none;stroke:none; fill:#333399" text-anchor="left"><tspan dy="14" x="1420">Aprov</tspan></text></g><g componentSequence="99"><text x="1606" y="564" style="font-size:10px;font-weight:none;stroke:none; fill:#333399" text-anchor="left" /></g><g componentSequence="102"><text x="1113" y="387" style="font-size:10px;font-weight:none;stroke:none; fill:#333399" text-anchor="left" /></g><g componentSequence="105"><text x="391" y="323" style="font-size:10px;font-weight:none;stroke:none; fill:#333399" text-anchor="left"><tspan dy="14" x="391">Sim</tspan></text></g><g componentSequence="106"><text x="512" y="872" style="font-size:10px;font-weight:none;stroke:none; fill:#333399" text-anchor="left"><tspan dy="14" x="512">Não</tspan></text></g><g componentSequence="116"><text x="237" y="387" style="font-size:10px;font-weight:none;stroke:none; fill:#333399" text-anchor="left" /></g><g componentSequence="117"><text x="866" y="941" style="font-size:10px;font-weight:none;stroke:none; fill:#333399" text-anchor="left" /></g><g componentSequence="121"><text x="1278" y="84" style="font-size:10px;font-weight:none;stroke:none; fill:#333399" text-anchor="left" /></g><g componentSequence="127"><text x="498" y="550" style="font-size:10px;font-weight:none;stroke:none; fill:#333399" text-anchor="left" /></g><g componentSequence="128"><text x="580" y="604" style="font-size:10px;font-weight:none;stroke:none; fill:#333399" text-anchor="left" /></g><g componentSequence="129"><text x="580" y="377" style="font-size:10px;font-weight:none;stroke:none; fill:#333399" text-anchor="left" /></g><g componentSequence="135"><text x="1595" y="63" style="font-size:10px;font-weight:none;stroke:none; fill:#333399" text-anchor="left" /></g><g componentSequence="137"><text x="1540" y="315" style="font-size:10px;font-weight:none;stroke:none; fill:#333399" text-anchor="left" /></g><g componentSequence="138"><text x="1480" y="67" style="font-size:10px;font-weight:none;stroke:none; fill:#333399" text-anchor="left" /></g><g componentSequence="144"><text x="610" y="71" style="font-size:10px;font-weight:none;stroke:none; fill:#333399" text-anchor="left"><tspan dy="14" x="610">Não</tspan></text></g><g componentSequence="145"><text x="817" y="109" style="font-size:10px;font-weight:none;stroke:none; fill:#333399" text-anchor="left"><tspan dy="14" x="817">Não</tspan></text></g><g componentSequence="146"><text x="579" y="673" style="font-size:10px;font-weight:none;stroke:none; fill:#333399" text-anchor="left" /></g><g componentSequence="148"><text x="1262" y="650" style="font-size:10px;font-weight:none;stroke:none; fill:#333399" text-anchor="left" /></g><g componentSequence="8"><text x="207" y="659" style="font-size:10px;font-weight:none;stroke:none; fill:#333399" text-anchor="left" /></g><path style="fill:none; stroke:#000000;stroke-width:1" d="M227.0 639.0 L227.0 134.0" /><polygon style="fill:#000000; stroke:#000000;" points=" 222 144 227 134 232 144 227 142" /><path style="fill:none; stroke:#000000;stroke-dasharray:2" d="M185.0 660.0 L210.0 658.0" /><path style="fill:none; stroke:#000000;stroke-width:1" d="M1336.0 417.0 L1210.0 416.0" /><polygon style="fill:#000000; stroke:#000000;" points=" 1220 421 1210 416 1220 411 1218 416" /><path style="fill:none; stroke:#000000;stroke-width:1" d="M1139.0 839.0 L1364.0 461.0" /><polygon style="fill:#000000; stroke:#000000;" points=" 1355 467 1364 461 1363 472 1360 468" /><path style="fill:none; stroke:#F00000;stroke-width:1" d="M1103.0 725.0 L1103.0 839.0" /><polygon style="fill:#F00000; stroke:#F00000;" points=" 1108 829 1103 839 1098 829 1103 831" /><polygon style="fill:#F00000; stroke:#F00000;" points=" 1098 735 1103 725 1108 735 1103 733" /><path style="fill:none; stroke:#000000;stroke-width:1" d="M1165.0 465.0 L1115.0 639.0" /><polygon style="fill:#000000; stroke:#000000;" points=" 1123 631 1115 639 1113 628 1117 631" /><path style="fill:none; stroke:#000000;stroke-width:1" d="M1103.0 135.0 L1103.0 639.0" /><polygon style="fill:#000000; stroke:#000000;" points=" 1108 629 1103 639 1098 629 1103 631" /><path style="fill:none; stroke:#000000;stroke-width:1" d="M650.0 1157.0 L1062.0 725.0" /><polygon style="fill:#000000; stroke:#000000;" points=" 1051 729 1062 725 1059 736 1056 731" /><path style="fill:none; stroke:#000000;stroke-width:1" d="M655.0 1084.0 L636.0 1139.0" /><polygon style="fill:#000000; stroke:#000000;" points=" 644 1131 636 1139 635 1128 639 1131" /><path style="fill:none; stroke:#000000;stroke-width:1" d="M795.0 472.0 L684.0 979.0" /><polygon style="fill:#000000; stroke:#000000;" points=" 691 970 684 979 681 968 686 971" /><path style="fill:none; stroke:#000000;stroke-width:1" d="M280.0 80.0 L349.0 78.0" /><polygon style="fill:#000000; stroke:#000000;" points=" 339 73 349 78 339 83 341 78" /><path style="fill:none; stroke:#000000;stroke-width:1" d="M380.0 146.0 L382.0 499.0" /><polygon style="fill:#000000; stroke:#000000;" points=" 387 489 382 499 377 489 382 491" /><path style="fill:none; stroke:#000000;stroke-width:1" d="M410.0 77.0 L790.0 64.0" /><polygon style="fill:#000000; stroke:#000000;" points=" 780 59 790 64 780 69 782 64" /><path style="fill:none; stroke:#000000;stroke-width:1" d="M436.0 551.0 L539.0 549.0" /><polygon style="fill:#000000; stroke:#000000;" points=" 529 544 539 549 529 554 531 549" /><path style="fill:none; stroke:#000000;stroke-width:1" d="M601.0 1139.0 L402.0 604.0" /><polygon style="fill:#000000; stroke:#000000;" points=" 401 615 402 604 410 612 405 611" /><path style="fill:none; stroke:#000000;stroke-width:1" d="M623.0 210.0 L776.0 205.0" /><polygon style="fill:#000000; stroke:#000000;" points=" 766 200 776 205 766 210 768 205" /><path style="fill:none; stroke:#000000;stroke-width:1" d="M570.0 490.0 L570.0 264.0" /><polygon style="fill:#000000; stroke:#000000;" points=" 565 274 570 264 575 274 570 272" /><path style="fill:none; stroke:#000000;stroke-width:1" d="M807.0 273.0 L807.0 367.0" /><polygon style="fill:#000000; stroke:#000000;" points=" 812 357 807 367 802 357 807 359" /><path style="fill:none; stroke:#000000;stroke-width:1" d="M807.0 136.0 L807.0 82.0" /><polygon style="fill:#000000; stroke:#000000;" points=" 802 92 807 82 812 92 807 90" /><path style="fill:none; stroke:#000000;stroke-width:1" d="M1210.0 387.0 L1363.0 245.0" /><polygon style="fill:#000000; stroke:#000000;" points=" 1352 248 1363 245 1359 255 1357 250" /><path style="fill:none; stroke:#000000;stroke-width:1" d="M1410.0 159.0 L1410.0 127.0" /><polygon style="fill:#000000; stroke:#000000;" points=" 1405 137 1410 127 1415 137 1410 135" /><path style="fill:none; stroke:#000000;stroke-width:1" d="M1379.0 71.0 L1156.0 96.0" /><polygon style="fill:#000000; stroke:#000000;" points=" 1166 100 1156 96 1165 90 1164 95" /><path style="fill:none; stroke:#000000;stroke-width:1" d="M1440.0 67.0 L1499.0 66.0" /><polygon style="fill:#000000; stroke:#000000;" points=" 1489 61 1499 66 1489 71 1491 66" /><path style="fill:none; stroke:#000000;stroke-width:1" d="M1583.0 566.0 L1610.0 560.0" /><polygon style="fill:#000000; stroke:#000000;" points=" 1599 557 1610 560 1601 567 1602 562" /><path style="fill:none; stroke:#000000;stroke-width:1" d="M1530.0 115.0 L1530.0 514.0" /><polygon style="fill:#000000; stroke:#000000;" points=" 1535 504 1530 514 1525 504 1530 506" /><path style="fill:none; stroke:#000000;stroke-width:1" d="M569.0 666.0 L569.0 680.0" /><polygon style="fill:#000000; stroke:#000000;" points=" 574 670 569 680 564 670 569 672" /><path style="fill:none; stroke:#000000;stroke-width:1" d="M570.0 608.0 L570.0 599.0" /><polygon style="fill:#000000; stroke:#000000;" points=" 565 609 570 599 575 609 570 607" /><path style="fill:none; stroke:#000000;stroke-width:1" d="M1610.0 61.0 L1560.0 64.0" /><polygon style="fill:#000000; stroke:#000000;" points=" 1570 68 1560 64 1570 58 1568 64" /><defs><linearGradient xmlns:xlink="http://www.w3.org/1999/xlink" xlink:href="#linearGradient66FF6696FF96B6FFB6" id="linearGradient66FF6696FF96B6FFB6_66042001" x1="0" y1="640.0" x2="0" y2="675.0" gradientUnits="userSpaceOnUse" xlink:type="simple" xlink:actuate="onLoad" xlink:show="other" /><linearGradient id="linearGradient66FF6696FF96B6FFB6"><stop style="stop-color:#66FF66;stop-opacity:1;" offset="0.0" id="stop66FF66" /><stop style="stop-color:#96FF96;stop-opacity:1;" offset="0.5" id="stop96FF96" /><stop style="stop-color:#B6FFB6;stop-opacity:1;" offset="1.0" id="stopB6FFB6" /></linearGradient><linearGradient xmlns:xlink="http://www.w3.org/1999/xlink" xlink:href="#linearGradientF8FBFEEDF5FCDEEDFAD4E7F8E2E5E9" id="linearGradientF8FBFEEDF5FCDEEDFAD4E7F8E2E5E9_220747420" x1="0" y1="376.0" x2="0" y2="482.0" gradientUnits="userSpaceOnUse" xlink:type="simple" xlink:actuate="onLoad" xlink:show="other" /><linearGradient id="linearGradientF8FBFEEDF5FCDEEDFAD4E7F8E2E5E9"><stop style="stop-color:#F8FBFE;stop-opacity:1;" offset="0.0" id="stopF8FBFE" /><stop style="stop-color:#EDF5FC;stop-opacity:1;" offset="0.25" id="stopEDF5FC" /><stop style="stop-color:#DEEDFA;stop-opacity:1;" offset="0.5" id="stopDEEDFA" /><stop style="stop-color:#D4E7F8;stop-opacity:1;" offset="0.75" id="stopD4E7F8" /><stop style="stop-color:#E2E5E9;stop-opacity:1;" offset="1.0" id="stopE2E5E9" /></linearGradient><linearGradient xmlns:xlink="http://www.w3.org/1999/xlink" xlink:href="#linearGradientF8FBFEEDF5FCDEEDFAD4E7F8E2E5E9" id="linearGradientF8FBFEEDF5FCDEEDFAD4E7F8E2E5E9_152556513" x1="0" y1="640.0" x2="0" y2="746.0" gradientUnits="userSpaceOnUse" xlink:type="simple" xlink:actuate="onLoad" xlink:show="other" /><linearGradient xmlns:xlink="http://www.w3.org/1999/xlink" xlink:href="#linearGradientF8FBFEEDF5FCDEEDFAD4E7F8E2E5E9" id="linearGradientF8FBFEEDF5FCDEEDFAD4E7F8E2E5E9_1276468391" x1="0" y1="980.0" x2="0" y2="1086.0" gradientUnits="userSpaceOnUse" xlink:type="simple" xlink:actuate="onLoad" xlink:show="other" /><linearGradient xmlns:xlink="http://www.w3.org/1999/xlink" xlink:href="#linearGradientF8FBFEEDF5FCDEEDFAD4E7F8E2E5E9" id="linearGradientF8FBFEEDF5FCDEEDFAD4E7F8E2E5E9_851463812" x1="0" y1="840.0" x2="0" y2="946.0" gradientUnits="userSpaceOnUse" xlink:type="simple" xlink:actuate="onLoad" xlink:show="other" /><linearGradient xmlns:xlink="http://www.w3.org/1999/xlink" xlink:href="#linearGradientF8FBFEEDF5FCDEEDFAD4E7F8E2E5E9" id="linearGradientF8FBFEEDF5FCDEEDFAD4E7F8E2E5E9_2098426614" x1="0" y1="30.0" x2="0" y2="136.0" gradientUnits="userSpaceOnUse" xlink:type="simple" xlink:actuate="onLoad" xlink:show="other" /><linearGradient xmlns:xlink="http://www.w3.org/1999/xlink" xlink:href="#linearGradientFAFBFCFFFFCC" id="linearGradientFAFBFCFFFFCC_1244413550" x1="0" y1="10.0" x2="0" y2="70.0" gradientUnits="userSpaceOnUse" xlink:type="simple" xlink:actuate="onLoad" xlink:show="other" /><linearGradient id="linearGradientFAFBFCFFFFCC"><stop style="stop-color:#FAFBFC;stop-opacity:1;" offset="0.0" id="stopFAFBFC" /><stop style="stop-color:#FFFFCC;stop-opacity:1;" offset="1.0" id="stopFFFFCC" /></linearGradient><linearGradient xmlns:xlink="http://www.w3.org/1999/xlink" xlink:href="#linearGradientF8FBFEEDF5FCDEEDFAD4E7F8E2E5E9" id="linearGradientF8FBFEEDF5FCDEEDFAD4E7F8E2E5E9_742040552" x1="0" y1="500.0" x2="0" y2="606.0" gradientUnits="userSpaceOnUse" xlink:type="simple" xlink:actuate="onLoad" xlink:show="other" /><linearGradient xmlns:xlink="http://www.w3.org/1999/xlink" xlink:href="#linearGradientF8FBFEEDF5FCDEEDFAD4E7F8E2E5E9" id="linearGradientF8FBFEEDF5FCDEEDFAD4E7F8E2E5E9_473853061" x1="0" y1="160.0" x2="0" y2="266.0" gradientUnits="userSpaceOnUse" xlink:type="simple" xlink:actuate="onLoad" xlink:show="other" /><linearGradient xmlns:xlink="http://www.w3.org/1999/xlink" xlink:href="#linearGradientFAFBFCFFFFCC" id="linearGradientFAFBFCFFFFCC_2061248822" x1="0" y1="137.0" x2="0" y2="197.0" gradientUnits="userSpaceOnUse" xlink:type="simple" xlink:actuate="onLoad" xlink:show="other" /><linearGradient xmlns:xlink="http://www.w3.org/1999/xlink" xlink:href="#linearGradientF8FBFEEDF5FCDEEDFAD4E7F8E2E5E9" id="linearGradientF8FBFEEDF5FCDEEDFAD4E7F8E2E5E9_1361622861" x1="0" y1="368.0" x2="0" y2="474.0" gradientUnits="userSpaceOnUse" xlink:type="simple" xlink:actuate="onLoad" xlink:show="other" /><linearGradient xmlns:xlink="http://www.w3.org/1999/xlink" xlink:href="#linearGradientFAFBFCFFFFCC" id="linearGradientFAFBFCFFFFCC_678722403" x1="0" y1="1140.0" x2="0" y2="1200.0" gradientUnits="userSpaceOnUse" xlink:type="simple" xlink:actuate="onLoad" xlink:show="other" /><linearGradient xmlns:xlink="http://www.w3.org/1999/xlink" xlink:href="#linearGradientFAFBFCFFFFCC" id="linearGradientFAFBFCFFFFCC_1203855532" x1="0" y1="367.0" x2="0" y2="427.0" gradientUnits="userSpaceOnUse" xlink:type="simple" xlink:actuate="onLoad" xlink:show="other" /><linearGradient xmlns:xlink="http://www.w3.org/1999/xlink" xlink:href="#linearGradientF8FBFEEDF5FCDEEDFAD4E7F8E2E5E9" id="linearGradientF8FBFEEDF5FCDEEDFAD4E7F8E2E5E9_1557099771" x1="0" y1="160.0" x2="0" y2="266.0" gradientUnits="userSpaceOnUse" xlink:type="simple" xlink:actuate="onLoad" xlink:show="other" /><linearGradient xmlns:xlink="http://www.w3.org/1999/xlink" xlink:href="#linearGradientFAFBFCFFFFCC" id="linearGradientFAFBFCFFFFCC_1212756720" x1="0" y1="10.0" x2="0" y2="70.0" gradientUnits="userSpaceOnUse" xlink:type="simple" xlink:actuate="onLoad" xlink:show="other" /><linearGradient xmlns:xlink="http://www.w3.org/1999/xlink" xlink:href="#linearGradientF8FBFEEDF5FCDEEDFAD4E7F8E2E5E9" id="linearGradientF8FBFEEDF5FCDEEDFAD4E7F8E2E5E9_1131280377" x1="0" y1="515.0" x2="0" y2="621.0" gradientUnits="userSpaceOnUse" xlink:type="simple" xlink:actuate="onLoad" xlink:show="other" /><linearGradient xmlns:xlink="http://www.w3.org/1999/xlink" xlink:href="#linearGradientFF6666FF9696FFB6B6" id="linearGradientFF6666FF9696FFB6B6_258288440" x1="0" y1="540.0" x2="0" y2="575.0" gradientUnits="userSpaceOnUse" xlink:type="simple" xlink:actuate="onLoad" xlink:show="other" /><linearGradient id="linearGradientFF6666FF9696FFB6B6"><stop style="stop-color:#FF6666;stop-opacity:1;" offset="0.0" id="stopFF6666" /><stop style="stop-color:#FF9696;stop-opacity:1;" offset="0.5" id="stopFF9696" /><stop style="stop-color:#FFB6B6;stop-opacity:1;" offset="1.0" id="stopFFB6B6" /></linearGradient><linearGradient xmlns:xlink="http://www.w3.org/1999/xlink" xlink:href="#linearGradientF8FBFEEDF5FCDEEDFAD4E7F8E2E5E9" id="linearGradientF8FBFEEDF5FCDEEDFAD4E7F8E2E5E9_673902211" x1="0" y1="69.0" x2="0" y2="175.0" gradientUnits="userSpaceOnUse" xlink:type="simple" xlink:actuate="onLoad" xlink:show="other" /><linearGradient xmlns:xlink="http://www.w3.org/1999/xlink" xlink:href="#linearGradientF8FBFEEDF5FCDEEDFAD4E7F8E2E5E9" id="linearGradientF8FBFEEDF5FCDEEDFAD4E7F8E2E5E9_703956932" x1="0" y1="600.0" x2="0" y2="706.0" gradientUnits="userSpaceOnUse" xlink:type="simple" xlink:actuate="onLoad" xlink:show="other" /><linearGradient xmlns:xlink="http://www.w3.org/1999/xlink" xlink:href="#linearGradientFAFBFCFFFFCC" id="linearGradientFAFBFCFFFFCC_93024060" x1="0" y1="491.0" x2="0" y2="551.0" gradientUnits="userSpaceOnUse" xlink:type="simple" xlink:actuate="onLoad" xlink:show="other" /><linearGradient xmlns:xlink="http://www.w3.org/1999/xlink" xlink:href="#linearGradientFFFF66FFFF96FFFFB6" id="linearGradientFFFF66FFFF96FFFFB6_596748382" x1="0" y1="680.0" x2="0" y2="715.0" gradientUnits="userSpaceOnUse" xlink:type="simple" xlink:actuate="onLoad" xlink:show="other" /><linearGradient id="linearGradientFFFF66FFFF96FFFFB6"><stop style="stop-color:#FFFF66;stop-opacity:1;" offset="0.0" id="stopFFFF66" /><stop style="stop-color:#FFFF96;stop-opacity:1;" offset="0.5" id="stopFFFF96" /><stop style="stop-color:#FFFFB6;stop-opacity:1;" offset="1.0" id="stopFFFFB6" /></linearGradient><linearGradient xmlns:xlink="http://www.w3.org/1999/xlink" xlink:href="#linearGradientFAFBFCFFFFCC" id="linearGradientFAFBFCFFFFCC_1555043417" x1="0" y1="17.0" x2="0" y2="77.0" gradientUnits="userSpaceOnUse" xlink:type="simple" xlink:actuate="onLoad" xlink:show="other" /><linearGradient xmlns:xlink="http://www.w3.org/1999/xlink" xlink:href="#linearGradientFFFF66FFFF96FFFFB6" id="linearGradientFFFF66FFFF96FFFFB6_1509843884" x1="0" y1="43.0" x2="0" y2="78.0" gradientUnits="userSpaceOnUse" xlink:type="simple" xlink:actuate="onLoad" xlink:show="other" /><linearGradient xmlns:xlink="http://www.w3.org/1999/xlink" xlink:href="#linearGradientFFFF66FFFF96FFFFB6" id="linearGradientFFFF66FFFF96FFFFB6_131208480" x1="0" y1="47.0" x2="0" y2="82.0" gradientUnits="userSpaceOnUse" xlink:type="simple" xlink:actuate="onLoad" xlink:show="other" /></defs></svg>
